<svg preserveAspectRatio="none" width="100%" height="100%" overflow="visible" style="display: block;" viewBox="0 0 52.6944 34" fill="none" xmlns="http://www.w3.org/2000/svg">
<g id="Frame 2087328445">
<path id="Subtract" fill-rule="evenodd" clip-rule="evenodd" d="M0.479318 13.0089C0.257569 13.4674 0.591616 14 1.10095 14H5.6946C5.95943 14 6.20093 13.8485 6.31623 13.6101L12.4188 0.991137C12.6406 0.532604 12.3065 0 11.7972 0L7.20354 0C6.9387 0 6.6972 0.151469 6.5819 0.389886L0.479318 13.0089Z" fill="var(--fill-0, white)"/>
<path id="Subtract_2" opacity="0.2" fill-rule="evenodd" clip-rule="evenodd" d="M20.3775 13.0089C20.1557 13.4674 20.4898 14 20.9991 14H25.5927C25.8576 14 26.0991 13.8485 26.2144 13.6101L32.317 0.991137C32.5387 0.532604 32.2047 0 31.6953 0L27.1017 0C26.8368 0 26.5953 0.151469 26.48 0.389886L20.3775 13.0089Z" fill="var(--fill-0, white)"/>
<path id="Subtract_3" opacity="0.2" fill-rule="evenodd" clip-rule="evenodd" d="M40.2756 13.0089C40.0538 13.4674 40.3879 14 40.8972 14H45.4909C45.7557 14 45.9972 13.8485 46.1125 13.6101L52.2151 0.991137C52.4368 0.532604 52.1028 0 51.5935 0L46.9998 0C46.735 0 46.4935 0.151469 46.3782 0.389886L40.2756 13.0089Z" fill="var(--fill-0, white)"/>
</g>
</svg>
