<svg width="296" height="164" viewBox="0 0 296 164" fill="none" xmlns="http://www.w3.org/2000/svg">
<path d="M51.1013 51.9903C51.9841 51.8505 52.7181 52.6662 52.4861 53.5294L39.2986 102.595C39.239 102.817 39.2422 103.051 39.3083 103.271L54.3904 153.412C54.6055 154.128 54.1402 154.869 53.4021 154.986L38.2888 157.38C37.6558 157.48 37.0509 157.079 36.8972 156.457L29.3542 125.895C28.6211 122.851 28.0199 119.077 27.5408 113.737C27.5301 113.62 27.4227 113.535 27.3064 113.554C27.2143 113.568 27.1439 113.644 27.1355 113.736C26.7787 117.81 26.4898 121.603 25.6072 126.342L18.4763 159.718C18.3696 160.217 17.9665 160.599 17.4626 160.679L1.42847 163.218C0.546623 163.358 -0.187486 162.543 0.0427246 161.681L14.7937 106.407C14.8545 106.18 14.8487 105.939 14.7771 105.714L0.655029 61.4181C0.425479 60.698 0.891053 59.9426 1.63745 59.8243L16.9958 57.3917C17.6203 57.2928 18.2188 57.6821 18.3816 58.2931L24.6833 81.9415C25.7422 86.241 26.0168 89.5237 26.6218 94.1544C26.6319 94.2318 26.7039 94.2866 26.781 94.2745C26.8441 94.2645 26.8928 94.2122 26.8982 94.1485C27.2916 89.4815 27.6233 85.9541 28.656 81.3126L34.6667 55.3731C34.7803 54.8836 35.1801 54.5123 35.6765 54.4337L51.1013 51.9903ZM95.8279 44.9063C96.4928 44.8011 97.1193 45.2482 97.2361 45.9112L114.516 144.035C114.636 144.715 114.175 145.361 113.494 145.469L99.3367 147.711C98.6561 147.819 98.0188 147.348 97.9216 146.666L94.9138 125.515C94.8168 124.832 94.1795 124.362 93.4988 124.47L79.5144 126.685C78.9718 126.771 78.5516 127.205 78.4832 127.75L75.6199 150.566C75.5515 151.11 75.1311 151.545 74.5886 151.631L59.4275 154.032C58.6 154.163 57.8851 153.449 58.0154 152.621L74.2917 49.1817C74.3749 48.6531 74.7896 48.2381 75.3181 48.1544L95.8279 44.9063ZM172.402 32.7784C173.149 32.6602 173.825 33.2351 173.829 33.9913L174.27 134.783C174.273 135.392 173.831 135.913 173.229 136.008L159.434 138.192C158.687 138.311 158.009 137.734 158.007 136.978L157.817 80.9454C157.722 73.2506 157.765 68.754 157.823 63.6309C157.825 63.4731 157.684 63.3514 157.528 63.3761C157.412 63.3946 157.324 63.4902 157.314 63.6075C156.849 69.4452 156.171 75.6235 154.147 84.2921L140.7 140.388C140.584 140.873 140.186 141.241 139.693 141.319L123.306 143.914C122.559 144.032 121.883 143.457 121.88 142.701L121.438 41.9093C121.436 41.3002 121.878 40.7799 122.479 40.6847L136.277 38.5001C137.024 38.3818 137.7 38.9561 137.704 39.712L137.983 93.1124C138.068 99.9859 137.947 103.215 137.929 110.139C137.929 110.298 138.071 110.422 138.228 110.398C138.344 110.379 138.433 110.284 138.445 110.167C139.033 104.326 139.812 98.88 141.12 93.6348L154.885 36.3233C155.001 35.8382 155.399 35.4707 155.891 35.3927L172.402 32.7784ZM208.022 27.1358C221.554 24.9926 234.507 28.0367 235.33 50.9073L235.698 58.8565C236.232 73.4752 232.275 87.0586 212.909 90.1261L204.767 91.4151C204.166 91.5104 203.724 92.0299 203.726 92.6388L203.877 130.095C203.879 130.704 203.437 131.223 202.836 131.318L188.046 133.66C187.299 133.778 186.622 133.204 186.619 132.447L186.177 31.6554C186.175 31.0464 186.617 30.5271 187.219 30.4317L208.022 27.1358ZM293.758 13.5567C294.505 13.4384 295.181 14.0142 295.184 14.7706L295.626 115.563C295.628 116.172 295.186 116.691 294.585 116.786L280.79 118.972C280.042 119.09 279.366 118.514 279.363 117.757L279.173 61.7247C279.077 54.0299 279.122 49.5333 279.179 44.4102C279.181 44.2525 279.04 44.1308 278.885 44.1554C278.768 44.1738 278.679 44.2693 278.67 44.3868C278.204 50.2245 277.528 56.4029 275.504 65.0714L262.055 121.167C261.939 121.653 261.542 122.02 261.049 122.098L244.663 124.693C243.916 124.812 243.239 124.237 243.235 123.481L242.795 22.6886C242.792 22.0795 243.234 21.5592 243.836 21.4639L257.633 19.2784C258.379 19.1601 259.056 19.7354 259.06 20.4913L259.339 73.8917C259.424 80.7651 259.303 83.9948 259.285 90.9181C259.285 91.077 259.427 91.2016 259.584 91.1768C259.7 91.1585 259.789 91.0633 259.801 90.9464C260.388 85.1053 261.167 79.6593 262.475 74.4141L276.24 17.1026C276.357 16.6175 276.754 16.2501 277.247 16.172L293.758 13.5567ZM86.1189 63.1856C86.0243 63.2006 85.9526 63.2805 85.947 63.3761C85.6081 69.166 85.2461 73.2683 84.6287 78.1251L80.6267 110.209C80.5252 111.024 81.2327 111.708 82.0437 111.58L91.5144 110.08C92.1798 109.975 92.6375 109.355 92.5427 108.688L88.2615 78.5684C87.6183 72.9214 86.9748 68.8349 86.3533 63.3643C86.34 63.2493 86.2333 63.1676 86.1189 63.1856ZM217.59 52.9893C217.584 42.5089 212.913 40.3368 208.071 41.1036L204.523 41.6661C203.922 41.7614 203.48 42.2809 203.482 42.8897L203.622 75.8897C203.625 76.646 204.302 77.2217 205.049 77.1036L210.084 76.3067C216.787 75.2449 217.603 69.1468 217.641 60.5518L217.59 52.9893ZM163.189 0.0157068C164.088 -0.126485 164.826 0.720593 164.563 1.59188L157.319 25.5723C157.182 26.0252 156.798 26.3597 156.331 26.4337L141.162 28.837C140.263 28.9792 139.525 28.1321 139.788 27.2608L147.032 3.28036C147.169 2.82737 147.553 2.49208 148.02 2.41805L163.189 0.0157068Z" fill="#EBFF00"/>
</svg>
