<svg preserveAspectRatio="none" width="100%" height="100%" overflow="visible" style="display: block;" viewBox="0 0 103 30" fill="none" xmlns="http://www.w3.org/2000/svg">
<path id="Vector" d="M0.0166218 24.8936V29.5745C0.0166218 29.5745 0.74783 30 2.177 30C7.26219 30 8.69135 25.8756 8.95724 15.0736L9.25637 4.00982H16.6017V29.5745H21.8198V0H4.53679L4.15457 15.1555C3.98838 22.3404 3.60617 25.27 1.49565 25.27C0.448696 25.27 0 24.8936 0 24.8936H0.0166218ZM42.3932 14.9754C42.3932 9.78723 39.7343 7.83961 34.2835 7.83961C30.8767 7.83961 28.2012 8.90344 26.6391 9.8036V14.0098C28.7411 12.6688 31.1813 11.932 33.6852 11.8822C36.1447 11.8822 37.2582 12.7332 37.2582 15.0246V16.2193H36.4439C28.5834 16.2193 25.077 18.7725 25.077 23.0933C25.077 27.4468 27.7525 29.8691 31.7243 29.8691C34.7654 29.8691 36.045 28.8871 37.0421 27.8723H37.2582C37.308 28.4288 37.4742 29.1489 37.657 29.5745H42.6591C42.4897 27.8337 42.4065 26.0859 42.4098 24.3371V14.9754H42.3932ZM37.2582 24.4681C36.61 25.401 35.4135 26.1702 33.6021 26.1702C31.4418 26.1702 30.3616 24.8936 30.3616 22.9787C30.3616 20.4746 32.1231 19.5745 36.5269 19.5745H37.2582V24.4681ZM55.0895 29.5745C60.1913 29.5745 63.2159 27.4468 63.2159 23.3552C63.2159 20.5565 61.4876 18.9362 58.596 18.4288C60.9226 17.7741 62.4016 16.1702 62.4016 13.617C62.4016 9.96727 59.9255 8.16694 55.1892 8.16694H46.5478V29.5745H55.0895ZM54.4414 11.9967C56.3027 11.9967 57.3496 12.766 57.3496 14.3863C57.3496 15.8592 56.2196 16.7594 54.2752 16.7594H51.6828V12.0131H54.4414V11.9967ZM54.5411 20.4746C56.7347 20.4746 57.898 21.2275 57.898 23.0278C57.898 24.9918 56.6018 25.7447 54.5245 25.7447H51.6828V20.4746H54.5411ZM79.4021 29.5745H85.2351L76.9924 18.036L84.2546 8.16694H79.0697L71.8075 18.036V8.16694H66.6559V29.5745H71.8075V19.0671L79.4021 29.5745ZM102.734 14.9754C102.734 9.78723 100.075 7.83961 94.6244 7.83961C91.201 7.83961 88.5255 8.90344 86.98 9.8036V14.0098C89.0772 12.6717 91.5112 11.935 94.0095 11.8822C96.469 11.8822 97.5991 12.7332 97.5991 15.0246V16.2193H96.7681C88.9077 16.2193 85.4179 18.7725 85.4179 23.0933C85.4179 27.4468 88.0768 29.8691 92.0652 29.8691C95.0897 29.8691 96.3859 28.8871 97.383 27.8723H97.5991C97.6323 28.4288 97.8151 29.1489 97.9813 29.5745H103C102.825 27.834 102.736 26.0861 102.734 24.3371V14.9754ZM97.5825 24.4681C96.951 25.401 95.7544 26.1702 93.9264 26.1702C91.766 26.1702 90.6859 24.8936 90.6859 22.9787C90.6859 20.4746 92.4474 19.5745 96.8679 19.5745H97.5991V24.4681H97.5825Z" fill="var(--fill-0, white)"/>
</svg>
