<svg preserveAspectRatio="none" width="100%" height="100%" overflow="visible" style="display: block;" viewBox="0 0 183 55.9995" fill="none" xmlns="http://www.w3.org/2000/svg">
<g id="g12">
<path id="path14" d="M44.8648 8.36788L39.5756 17.1995L34.3959 8.36788H28.1943L36.1615 21.6699L28.042 34.0195H34.52L39.7216 25.7743L44.6826 34.0195H50.8836L42.8952 21.267L51.1025 8.36788H44.8648Z" fill="var(--fill-0, white)"/>
<path id="path16" d="M71.2593 17.0894C71.2593 11.4461 67.028 7.92828 61.4832 7.92828C56.5952 7.92828 52.4797 10.6398 52.0786 16.5398H57.3677C57.7325 13.9746 59.7753 12.8752 62.0007 12.8752C64.7728 12.8752 65.9702 14.7442 65.9702 17.1628C65.9702 19.6913 64.1099 21.267 61.5198 21.267C59.3677 21.267 57.9451 20.241 57.2885 19.1415H52.2325L53.9805 34.0195H70.6094L70.0556 29.0356H58.1605L57.6883 24.1121C57.6883 24.1121 58.9382 25.591 62.7237 25.591C67.2835 25.591 71.2593 22.5129 71.2593 17.0894Z" fill="var(--fill-0, white)"/>
<path id="path18" d="M52.7051 37.2142C49.888 48.2477 40.9476 55.9995 22.3972 55.9995H0L3.04039 35.347C5.32753 16.7115 12.4225 10.716 24.9779 8.50874C25.037 8.49953 25.4331 8.4428 25.439 8.91045C25.441 9.07858 25.3345 9.22376 25.1894 9.28539C16.7027 12.8754 15.7342 24.6463 13.9218 36.4595L12.5186 45.8729H25.3044C37.0928 45.8729 46.1926 46.0599 51.9559 36.9197C52.0422 36.7905 52.175 36.6958 52.333 36.6958C52.5561 36.6958 52.7209 36.8776 52.7209 37.1017C52.7209 37.1407 52.7153 37.1784 52.7051 37.2142Z" fill="var(--fill-0, white)"/>
<path id="path20" d="M75.6958 21.2132C75.6958 29.1818 81.4548 34.9308 89.4595 34.9308C94.8201 34.9308 99.6736 31.8016 101.086 27.508L98.08 26.4891C96.9933 29.6912 93.4076 32.0198 89.4595 32.0198C83.3382 32.0198 78.9919 27.5443 78.9919 21.2132C78.9919 14.9547 83.3744 10.3701 89.4595 10.3701C94.965 10.3701 99.3113 14.3362 99.4563 19.503L86.7792 19.5394V22.4867H102.789C103.332 13.754 97.7539 7.45912 89.4595 7.45912C81.4548 7.45912 75.6958 13.2446 75.6958 21.2132Z" fill="var(--fill-0, white)"/>
<path id="path22" d="M106.751 26.7437H109.685V24.2695H110.011C110.844 25.9433 112.873 27.1076 114.901 27.1076C115.734 27.1076 116.603 26.9257 117.147 26.6347V23.8329C116.205 24.2332 115.118 24.3787 114.43 24.3787C111.677 24.3787 109.758 21.9045 109.758 18.2658V8.36881H106.751V26.7437Z" fill="var(--fill-0, white)"/>
<path id="path24" d="M135.464 17.5745C135.464 21.7226 132.602 24.7426 128.654 24.7426C124.67 24.7426 121.845 21.7226 121.845 17.5745C121.845 13.3901 124.67 10.3701 128.654 10.3701C132.602 10.3701 135.464 13.3901 135.464 17.5745ZM118.838 17.5745C118.838 23.3598 122.895 27.4715 128.654 27.4715C134.377 27.4715 138.47 23.3598 138.47 17.5745C138.47 11.7527 134.377 7.64109 128.654 7.64109C122.895 7.64109 118.838 11.7527 118.838 17.5745Z" fill="var(--fill-0, white)"/>
<path id="path26" d="M158.688 8.36881H155.682V10.8794H155.32C154.052 8.87828 151.988 7.71379 149.597 7.71379C144.925 7.71379 141.991 11.0977 141.991 15.7917V26.7437H144.997V15.7917C144.997 12.6624 146.808 10.4428 149.959 10.4428C153.038 10.4428 155.682 12.808 155.682 16.0463V26.7437H158.688V8.36881Z" fill="var(--fill-0, white)"/>
<path id="path28" d="M166.411 17.5745C166.411 13.5357 169.272 10.3701 173.22 10.3701C177.132 10.3701 179.993 13.5357 179.993 17.5745C179.993 21.6861 177.132 24.7426 173.22 24.7426C169.272 24.7426 166.411 21.6134 166.411 17.5745ZM183 17.5745C183 11.8254 178.907 7.64109 173.582 7.64109C170.649 7.64109 168.186 8.91464 166.846 11.0977H166.519V0H163.513V26.7437H166.519V23.942H166.846C168.186 26.1616 170.54 27.4715 173.546 27.4715C178.871 27.4715 183 23.3235 183 17.5745Z" fill="var(--fill-0, white)"/>
</g>
</svg>
