<svg preserveAspectRatio="none" width="100%" height="100%" overflow="visible" style="display: block;" viewBox="0 0 85 86.8085" fill="none" xmlns="http://www.w3.org/2000/svg">
<g id="Frame 2087328526">
<path id="Vector" d="M0 41.5957C0 21.9879 0 12.1839 5.96417 6.09106C11.9283 -0.00180838 21.5298 6.36458e-10 40.7292 6.36458e-10H44.2708C63.4702 6.36458e-10 73.0717 0 79.0358 6.09106C85 12.1839 85 21.9879 85 41.5957V45.2128C85 64.8206 85 74.6264 79.0358 80.7174C73.0699 86.8085 63.4702 86.8085 44.2708 86.8085H40.7292C21.5298 86.8085 11.9301 86.8085 5.96417 80.7174C0 74.6246 0 64.8206 0 45.2128V41.5957Z" fill="var(--fill-0, black)"/>
<path id="Vector_2" fill-rule="evenodd" clip-rule="evenodd" d="M22.7024 28.936H16.5704C14.8184 28.936 14.468 29.7413 14.468 30.6322C14.468 32.2205 16.5476 40.0984 24.1496 50.5171C29.2182 57.6325 36.3593 61.4892 42.8575 61.4892C46.7557 61.4892 47.2375 60.6326 47.2375 59.1574V53.7793C47.2375 52.0659 47.6072 51.7233 48.8424 51.7233C49.7517 51.7233 51.311 52.1687 54.9499 55.5988C59.1091 59.6645 59.7942 61.4892 62.1331 61.4892H68.2651C70.0189 61.4892 70.8949 60.6326 70.3903 58.9415C69.8367 57.2573 67.8499 54.8124 65.2166 51.9152C63.787 50.2635 61.6425 48.4834 60.9943 47.5942C60.0832 46.4514 60.3425 45.9425 60.9943 44.9265C60.9943 44.9265 68.4648 34.6346 69.2462 31.1411C69.6352 29.8698 69.2462 28.936 67.3891 28.936H61.2571C59.6978 28.936 58.9795 29.7413 58.5888 30.6322C58.5888 30.6322 55.4702 38.0646 51.0517 42.8928C49.622 44.2909 48.972 44.7363 48.1924 44.7363C47.8017 44.7363 47.2375 44.2909 47.2375 43.0213V31.1411C47.2375 29.6162 46.7855 28.936 45.4855 28.936H35.8477C34.8719 28.936 34.2867 29.6436 34.2867 30.3153C34.2867 31.7596 36.4942 32.0937 36.722 36.1577V44.9899C36.722 46.926 36.3663 47.2772 35.5867 47.2772C33.5071 47.2772 28.449 39.8105 25.4496 31.2679C24.8609 29.6042 24.2722 28.936 22.7024 28.936Z" fill="var(--fill-0, white)"/>
</g>
</svg>
